#!OML:ASF G:\JayActor3\Patient Classification 1\Patient 1\Session 6\male.ASF
:FULLY-SPECIFIED
:DEGREES
140
root 9.11215 14.0477 -4.38012 23.6705 -86.9149 -13.3879
lowerback 20.4408 -1.52435 2.11447
upperback 0.761069 -1.6453 -0.38061
thorax -10.7232 -0.927957 -1.13938
lowerneck -12.9442 0.175058 2.42954
upperneck -0.850738 -0.290601 0.956018
head 1.94323 -0.170689 -0.132262
rclavicle -2.98177e-015 2.74323e-014
rhumerus 24.2386 7.68392 -65.7536
rradius 77.3072
rwrist 17.8374
rhand 0.24609 -11.1665
rfingers 7.12502
rthumb 25.8261 -39.4331
lclavicle -2.98177e-015 2.74323e-014
lhumerus 21.738 -10.4742 64.3311
lradius 77.3238
lwrist -1.59592
lhand -4.61833 16.3661
lfingers 7.12502
lthumb 21.1601 45.2313
rfemur -56.8281 -14.3545 24.6124
rtibia 81.142
rfoot -32.46 -9.49876
rtoes -12.2661
lfemur -55.6773 15.5068 -16.4263
ltibia 74.7061
lfoot -26.2901 0.913028
ltoes -12.0994
141
root 9.11577 14.0464 -4.38051 23.6154 -86.9143 -13.3156
lowerback 20.4526 -1.52496 2.12149
upperback 0.770354 -1.64491 -0.383178
thorax -10.7197 -0.928256 -1.14619
lowerneck -12.9452 0.175783 2.42963
upperneck -0.863128 -0.289459 0.946575
head 1.93928 -0.170693 -0.13521
rclavicle 2.55438e-014 -3.18055e-015
rhumerus 24.2325 7.66389 -65.7899
rradius 77.394
rwrist 17.8682
rhand 0.225771 -11.157
rfingers 7.12502
rthumb 25.8066 -39.4265
lclavicle 2.55438e-014 -3.18055e-015
lhumerus 21.7389 -10.4349 64.3613
lradius 77.4072
lwrist -1.62705
lhand -4.62997 16.3655
lfingers 7.12502
lthumb 21.1489 45.232
rfemur -56.8754 -14.3442 24.617
rtibia 81.1581
rfoot -32.4544 -9.51396
rtoes -12.2717
lfemur -55.7217 15.4997 -16.4372
ltibia 74.7178
lfoot -26.283 0.917873
ltoes -12.0807
142
root 9.11933 14.0451 -4.38098 23.6327 -86.9129 -13.3134
lowerback 20.4619 -1.52569 2.13081
upperback 0.778709 -1.64395 -0.384011
thorax -10.7157 -0.928341 -1.15262
lowerneck -12.9478 0.177118 2.42581
upperneck -0.872789 -0.287135 0.941699
head 1.93652 -0.169908 -0.135967
rclavicle -3.00165e-014 1.39149e-015
rhumerus 24.2247 7.64883 -65.8239
rradius 77.4814
rwrist 17.8754
rhand 0.183801 -11.1436
rfingers 7.12502
rthumb 25.7664 -39.419
lclavicle -3.00165e-014 1.39149e-015
lhumerus 21.735 -10.3962 64.3896
lradius 77.4935
lwrist -1.64907
lhand -4.6475 16.3637
lfingers 7.12502
lthumb 21.1321 45.232
rfemur -56.9254 -14.3353 24.628
rtibia 81.174
rfoot -32.4457 -9.52944
rtoes -12.2819
lfemur -55.7703 15.4979 -16.4451
ltibia 74.7303
lfoot -26.2745 0.918841
ltoes -12.0621
143
root 9.12289 14.0438 -4.38165 23.7122 -86.9086 -13.3716
lowerback 20.4692 -1.52752 2.14098
upperback 0.784961 -1.64398 -0.382951
thorax -10.713 -0.928865 -1.15717
lowerneck -12.9506 0.179185 2.42196
upperneck -0.875806 -0.283853 0.938798
head 1.93604 -0.16843 -0.136048
rclavicle -2.08724e-014 -9.93923e-016
rhumerus 24.2127 7.64126 -65.8571
rradius 77.5694
rwrist 17.861
rhand 0.123361 -11.1315
rfingers 7.12502
rthumb 25.7085 -39.4152
lclavicle -2.08724e-014 -9.93923e-016
lhumerus 21.726 -10.3577 64.4172
lradius 77.5776
lwrist -1.66326
lhand -4.66433 16.3612
lfingers 7.12502
lthumb 21.1159 45.2313
rfemur -56.9778 -14.329 24.6455
rtibia 81.1893
rfoot -32.4354 -9.54348
rtoes -12.284
lfemur -55.8227 15.4998 -16.4492
ltibia 74.7432
lfoot -26.2638 0.914793
ltoes -12.0427
144
root 9.12643 14.0427 -4.38245 23.7864 -86.9005 -13.4235
lowerback 20.4747 -1.53095 2.15046
upperback 0.789645 -1.64612 -0.380785
thorax -10.7111 -0.930298 -1.1595
lowerneck -12.9551 0.181545 2.41644
upperneck -0.870674 -0.28004 0.938998
head 1.9386 -0.166405 -0.13484
rclavicle 5.96354e-016 -1.45113e-014
rhumerus 24.1981 7.63752 -65.89
rradius 77.6564
rwrist 17.8356
rhand 0.0684581 -11.1207
rfingers 7.12502
rthumb 25.6559 -39.412
lclavicle 5.96354e-016 -1.45113e-014
lhumerus 21.7165 -10.3207 64.4437
lradius 77.6545
lwrist -1.67046
lhand -4.6742 16.3599
lfingers 7.12502
lthumb 21.1064 45.2312
rfemur -57.0306 -14.3291 24.6656
rtibia 81.2035
rfoot -32.4246 -9.55572
rtoes -12.2826
lfemur -55.8774 15.5018 -16.4529
ltibia 74.7553
lfoot -26.2511 0.906359
ltoes -12.024
145
root 9.12971 14.0417 -4.38333 23.8641 -86.895 -13.4819
lowerback 20.4803 -1.5335 2.15679
upperback 0.793535 -1.64778 -0.378455
thorax -10.71 -0.931346 -1.15998
lowerneck -12.9607 0.183702 2.40967
upperneck -0.856123 -0.27639 0.942717
head 1.94452 -0.164135 -0.13232
rclavicle 1.68967e-015 1.31198e-014
rhumerus 24.1794 7.63933 -65.9216
rradius 77.7422
rwrist 17.8036
rhand 0.0166188 -11.1162
rfingers 7.12502
rthumb 25.6063 -39.4146
lclavicle 1.68967e-015 1.31198e-014
lhumerus 21.7052 -10.2869 64.4683
lradius 77.7236
lwrist -1.67575
lhand -4.67799 16.3642
lfingers 7.12502
lthumb 21.1028 45.2359
rfemur -57.0777 -14.3296 24.6846
rtibia 81.2157
rfoot -32.4166 -9.56216
rtoes -12.2737
lfemur -55.9258 15.5084 -16.4559
ltibia 74.7661
lfoot -26.2381 0.894304
ltoes -12.0075
146
root 9.13267 14.0409 -4.38437 23.9455 -86.8915 -13.5479
lowerback 20.4852 -1.53525 2.16041
upperback 0.79822 -1.64911 -0.376441
thorax -10.7076 -0.932111 -1.15939
lowerneck -12.98 0.186466 2.39087
upperneck -0.821521 -0.271126 0.961518
head 1.95965 -0.160175 -0.122878
rclavicle 5.36719e-015 -2.72335e-014
rhumerus 24.1589 7.6448 -65.9521
rradius 77.826
rwrist 17.7757
rhand -0.0236173 -11.1177
rfingers 7.12502
rthumb 25.5678 -39.4217
lclavicle 5.36719e-015 -2.72335e-014
lhumerus 21.6949 -10.2566 64.4894
lradius 77.7837
lwrist -1.68425
lhand -4.67083 16.3726
lfingers 7.12502
lthumb 21.1097 45.2435
rfemur -57.1174 -14.3298 24.7028
rtibia 81.2256
rfoot -32.4116 -9.56538
rtoes -12.2594
lfemur -55.9674 15.5188 -16.4576
ltibia 74.7752
lfoot -26.2245 0.880194
ltoes -11.9949
147
root 9.13543 14.0402 -4.38548 24.0135 -86.8889 -13.6028
lowerback 20.4893 -1.53636 2.16226
upperback 0.802579 -1.65008 -0.375017
thorax -10.705 -0.932627 -1.15855
lowerneck -13.0182 0.189873 2.35282
upperneck -0.760458 -0.263569 1.00283
head 1.98711 -0.153818 -0.102856
rclavicle 4.27387e-015 -1.49089e-014
rhumerus 24.1364 7.65431 -65.9782
rradius 77.9075
rwrist 17.762
rhand -0.0491169 -11.1287
rfingers 7.12502
rthumb 25.5433 -39.4362
lclavicle 4.27387e-015 -1.49089e-014
lhumerus 21.6789 -10.2321 64.507
lradius 77.843
lwrist -1.69978
lhand -4.65204 16.3836
lfingers 7.12502
lthumb 21.1277 45.2525
rfemur -57.1523 -14.3312 24.7196
rtibia 81.2334
rfoot -32.4091 -9.56279
rtoes -12.2341
lfemur -56.0052 15.5317 -16.4594
ltibia 74.7834
lfoot -26.209 0.863326
ltoes -11.9835
148
root 9.13779 14.0396 -4.38653 24.0847 -86.8932 -13.6667
lowerback 20.494 -1.53478 2.16156
upperback 0.808781 -1.6483 -0.374678
thorax -10.7005 -0.931764 -1.15827
lowerneck -13.0748 0.193123 2.2957
upperneck -0.677967 -0.254754 1.06419
head 2.02515 -0.145765 -0.0730773
rclavicle -5.46658e-015 -1.11319e-014
rhumerus 24.1162 7.66745 -65.9956
rradius 77.9851
rwrist 17.7701
rhand -0.0540527 -11.1457
rfingers 7.12502
rthumb 25.5386 -39.4539
lclavicle -5.46658e-015 -1.11319e-014
lhumerus 21.6614 -10.2129 64.5193
lradius 77.9004
lwrist -1.72401
lhand -4.62537 16.3966
lfingers 7.12502
lthumb 21.1533 45.2626
rfemur -57.1781 -14.3285 24.7325
rtibia 81.2392
rfoot -32.4082 -9.55874
rtoes -12.2109
lfemur -56.032 15.5489 -16.4611
ltibia 74.79
lfoot -26.1952 0.847895
ltoes -11.9712
149
root 9.13992 14.039 -4.38746 24.1129 -86.901 -13.6925
lowerback 20.5015 -1.53184 2.1588
upperback 0.81543 -1.64532 -0.375703
thorax -10.6971 -0.930296 -1.15863
lowerneck -13.1412 0.195837 2.23042
upperneck -0.582735 -0.246075 1.1338
head 2.06934 -0.137239 -0.0392099
rclavicle 5.96354e-016 -5.96354e-015
rhumerus 24.0962 7.68493 -66.0017
rradius 78.0604
rwrist 17.7982
rhand -0.0401782 -11.1636
rfingers 7.12502
rthumb 25.5519 -39.4698
lclavicle 5.96354e-016 -5.96354e-015
lhumerus 21.6403 -10.2002 64.5272
lradius 77.957
lwrist -1.75626
lhand -4.59349 16.4076
lfingers 7.12502
lthumb 21.1839 45.2702
rfemur -57.1968 -14.3262 24.7402
rtibia 81.2439
rfoot -32.4066 -9.5512
rtoes -12.1736
lfemur -56.0495 15.5659 -16.4643
ltibia 74.7952
lfoot -26.184 0.833114
ltoes -11.9541
150
root 9.142 14.0385 -4.38825 24.1297 -86.9073 -13.709
lowerback 20.5117 -1.52977 2.15765
upperback 0.820842 -1.64294 -0.375929
thorax -10.6966 -0.929178 -1.15878
lowerneck -13.2067 0.198107 2.1644
upperneck -0.486701 -0.237754 1.20133
head 2.11374 -0.128919 -0.00581259
rclavicle 4.17448e-015 -8.15017e-015
rhumerus 24.0787 7.70876 -65.9944
rradius 78.1313
rwrist 17.8371
rhand -0.0136435 -11.1775
rfingers 7.12502
rthumb 25.5773 -39.4801
lclavicle 4.17448e-015 -8.15017e-015
lhumerus 21.6134 -10.1919 64.5325
lradius 78.0151
lwrist -1.79745
lhand -4.56097 16.4164
lfingers 7.12502
lthumb 21.2152 45.2755
rfemur -57.2125 -14.3277 24.7473
rtibia 81.2489
rfoot -32.4058 -9.54437
rtoes -12.1465
lfemur -56.0634 15.5785 -16.4666
ltibia 74.7984
lfoot -26.1735 0.820304
ltoes -11.9367
151
root 9.14414 14.0379 -4.38891 24.1221 -86.9109 -13.7022
lowerback 20.5255 -1.52915 2.15787
upperback 0.823872 -1.64192 -0.375548
thorax -10.7008 -0.928764 -1.15854
lowerneck -13.2559 0.199446 2.11486
upperneck -0.405792 -0.231817 1.2496
head 2.15011 -0.122683 0.0185166
rclavicle 7.85199e-015 -7.95139e-015
rhumerus 24.0624 7.73862 -65.976
rradius 78.1976
rwrist 17.8828
rhand 0.0201478 -11.1841
rfingers 7.12502
rthumb 25.6097 -39.4821
lclavicle 7.85199e-015 -7.95139e-015
lhumerus 21.5797 -10.1869 64.5352
lradius 78.0752
lwrist -1.84435
lhand -4.53036 16.4186
lfingers 7.12502
lthumb 21.2446 45.2743
rfemur -57.2276 -14.3334 24.7535
rtibia 81.2533
rfoot -32.4017 -9.53974
rtoes -12.1287
lfemur -56.076 15.5857 -16.4688
ltibia 74.8025
lfoot -26.1649 0.810971
ltoes -11.9208
